<svg xmlns="http://www.w3.org/2000/svg" viewBox="0 0 143.2 35.7"><defs><style>.cls-1{fill:#99246a;}.cls-2{fill:#f79331;}.cls-3{fill:#19181c;}.cls-4{fill:#767a7e;}</style></defs><g id="Layer_2" data-name="Layer 2"><g id="logos"><polygon class="cls-1" points="0 3.95 0 0 30.35 0 30.35 3.95 15.86 3.95 30.35 16.62 30.35 21.12 16.11 8.67 0 23.06 0 18.11 15.86 3.95 0 3.95"/><polygon class="cls-2" points="30.35 23.06 30.35 19.11 0 19.11 0 23.06 15.86 23.06 30.35 23.06"/><polygon class="cls-1" points="5.31 32.47 7.24 35.7 16.11 27.78 24.78 35.36 26.24 32.14 15.86 23.06 5.31 32.47"/><path class="cls-3" d="M45.87,17.4a.27.27,0,0,1,0,.12.2.2,0,0,1-.11.09l-.24.06-.37,0a3.28,3.28,0,0,1-.49,0,.57.57,0,0,1-.28-.09,1.17,1.17,0,0,1-.16-.15l-4.07-5.54v5.54a.26.26,0,0,1,0,.11.27.27,0,0,1-.12.09l-.23.05-.36,0-.35,0-.23-.05a.23.23,0,0,1-.12-.09.26.26,0,0,1,0-.11V6.79a.21.21,0,0,1,0-.12.29.29,0,0,1,.12-.09l.23,0,.35,0,.36,0,.23,0a.38.38,0,0,1,.12.09.21.21,0,0,1,0,.12v4.92L44,6.79a.51.51,0,0,1,.12-.13.45.45,0,0,1,.17-.08,1.11,1.11,0,0,1,.24,0l.36,0,.36,0,.22.06a.21.21,0,0,1,.14.2.59.59,0,0,1,0,.22,2.09,2.09,0,0,1-.22.31l-3.67,4.39L45.66,17a2.21,2.21,0,0,1,.18.3.44.44,0,0,1,0,.14"/><path class="cls-3" d="M53.57,17.42a.21.21,0,0,1,0,.12.21.21,0,0,1-.1.08,1,1,0,0,1-.2.05l-.31,0-.32,0a.64.64,0,0,1-.19-.05.14.14,0,0,1-.1-.08.21.21,0,0,1,0-.12v-1A4.87,4.87,0,0,1,51,17.47a2.82,2.82,0,0,1-1.3.33,3,3,0,0,1-1.3-.26,2.24,2.24,0,0,1-.85-.7,2.81,2.81,0,0,1-.47-1,6.43,6.43,0,0,1-.14-1.42V9.72a.2.2,0,0,1,0-.11s.06-.06.12-.09a1,1,0,0,1,.22,0H48a.81.81,0,0,1,.21,0c.06,0,.1.05.12.09a.2.2,0,0,1,0,.11v4.49a5.08,5.08,0,0,0,.1,1.08,2.18,2.18,0,0,0,.3.69,1.57,1.57,0,0,0,.51.45,1.66,1.66,0,0,0,.72.15A1.82,1.82,0,0,0,51,16.21a5.78,5.78,0,0,0,1.11-1.11V9.72a.2.2,0,0,1,0-.11s.06-.06.12-.09a1,1,0,0,1,.22,0h.69a.81.81,0,0,1,.21,0,.38.38,0,0,1,.12.09.21.21,0,0,1,0,.11Z"/><path class="cls-3" d="M62.4,13.24a.58.58,0,0,1-.17.47.55.55,0,0,1-.39.14H56.77A5.08,5.08,0,0,0,56.9,15a2.26,2.26,0,0,0,.43.88,1.89,1.89,0,0,0,.78.57,3.21,3.21,0,0,0,1.18.19,4.74,4.74,0,0,0,1-.09,5,5,0,0,0,.75-.2l.51-.2a.88.88,0,0,1,.31-.09.17.17,0,0,1,.1,0,.18.18,0,0,1,.08.09.61.61,0,0,1,0,.17,2,2,0,0,1,0,.26,1.09,1.09,0,0,1,0,.19A.77.77,0,0,1,62,17a.36.36,0,0,1,0,.11.39.39,0,0,1-.08.1,1.17,1.17,0,0,1-.28.15,3.14,3.14,0,0,1-.6.21c-.24.07-.53.13-.85.19a6.72,6.72,0,0,1-1,.08,4.66,4.66,0,0,1-1.66-.27,3,3,0,0,1-1.2-.78,3.3,3.3,0,0,1-.74-1.31,6,6,0,0,1-.25-1.83,5.53,5.53,0,0,1,.26-1.79,3.63,3.63,0,0,1,.74-1.34,3.21,3.21,0,0,1,1.17-.85A3.73,3.73,0,0,1,59,9.33a3.58,3.58,0,0,1,1.54.3,2.78,2.78,0,0,1,1.05.78,3.05,3.05,0,0,1,.6,1.16A5,5,0,0,1,62.4,13ZM61,12.82a2.61,2.61,0,0,0-.5-1.75,1.89,1.89,0,0,0-1.55-.63,2.08,2.08,0,0,0-.92.2,2,2,0,0,0-.66.52,2.23,2.23,0,0,0-.41.76,3,3,0,0,0-.17.9Z"/><path class="cls-3" d="M70.82,17.42a.21.21,0,0,1,0,.12.24.24,0,0,1-.11.08.81.81,0,0,1-.21.05l-.35,0-.35,0a.81.81,0,0,1-.21-.05.24.24,0,0,1-.11-.08.16.16,0,0,1,0-.12V12.91a4.42,4.42,0,0,0-.1-1.06,2.18,2.18,0,0,0-.3-.69,1.21,1.21,0,0,0-.51-.44,1.53,1.53,0,0,0-.72-.16,1.89,1.89,0,0,0-1.07.38A6,6,0,0,0,65.6,12v5.38a.21.21,0,0,1,0,.12.24.24,0,0,1-.11.08.81.81,0,0,1-.21.05l-.36,0-.34,0a1,1,0,0,1-.22-.05.24.24,0,0,1-.11-.08.21.21,0,0,1,0-.12V9.72a.2.2,0,0,1,0-.11.22.22,0,0,1,.1-.09l.2,0h.63a.74.74,0,0,1,.19,0s.08.05.1.09a.2.2,0,0,1,0,.11v1a4.69,4.69,0,0,1,1.29-1.07,3,3,0,0,1,2.61-.07,2.32,2.32,0,0,1,.85.7,2.73,2.73,0,0,1,.46,1,5.79,5.79,0,0,1,.14,1.41Z"/><path class="cls-3" d="M76.23,17.64l-1,2.83a.43.43,0,0,1-.27.21,2,2,0,0,1-.63.07l-.36,0a.52.52,0,0,1-.21-.07.17.17,0,0,1-.08-.14.38.38,0,0,1,0-.2l1.06-2.68a.39.39,0,0,1-.14-.12.34.34,0,0,1-.1-.16L71.77,10a1,1,0,0,1-.07-.28.22.22,0,0,1,.07-.16A.41.41,0,0,1,72,9.48a2.37,2.37,0,0,1,.41,0h.4a.66.66,0,0,1,.23,0,.19.19,0,0,1,.12.09l.09.18L75.45,16h0l2.12-6.21a.4.4,0,0,1,.13-.21.52.52,0,0,1,.22-.07,2.25,2.25,0,0,1,.41,0,2.36,2.36,0,0,1,.4,0,.44.44,0,0,1,.23.08.22.22,0,0,1,.07.16A1.05,1.05,0,0,1,79,10Z"/><path class="cls-3" d="M86.66,13.24a.58.58,0,0,1-.16.47.55.55,0,0,1-.39.14H81A5.08,5.08,0,0,0,81.17,15a2.26,2.26,0,0,0,.43.88,1.89,1.89,0,0,0,.78.57,3.21,3.21,0,0,0,1.18.19,4.74,4.74,0,0,0,1-.09,5,5,0,0,0,.75-.2l.51-.2a.88.88,0,0,1,.31-.09.17.17,0,0,1,.1,0,.18.18,0,0,1,.08.09.65.65,0,0,1,0,.17,1.84,1.84,0,0,1,0,.26c0,.07,0,.14,0,.19s0,.1,0,.15,0,.08,0,.11a.39.39,0,0,1-.08.1,1.44,1.44,0,0,1-.28.15,3.14,3.14,0,0,1-.6.21c-.24.07-.53.13-.85.19a6.63,6.63,0,0,1-1,.08,4.76,4.76,0,0,1-1.67-.27,3.16,3.16,0,0,1-1.2-.78,3.41,3.41,0,0,1-.73-1.31,6,6,0,0,1-.25-1.83,5.82,5.82,0,0,1,.25-1.79,3.8,3.8,0,0,1,.75-1.34,3.26,3.26,0,0,1,1.16-.85,3.8,3.8,0,0,1,1.53-.3,3.6,3.6,0,0,1,1.55.3,2.86,2.86,0,0,1,1.05.78,3.2,3.2,0,0,1,.6,1.16A5,5,0,0,1,86.66,13Zm-1.42-.42a2.55,2.55,0,0,0-.49-1.75,1.89,1.89,0,0,0-1.55-.63,2.08,2.08,0,0,0-.92.2,2,2,0,0,0-.66.52,2.44,2.44,0,0,0-.42.76,3.33,3.33,0,0,0-.16.9Z"/><path class="cls-3" d="M95.09,17.42a.21.21,0,0,1,0,.12.24.24,0,0,1-.11.08.8.8,0,0,1-.22.05l-.34,0-.35,0a.81.81,0,0,1-.21-.05.36.36,0,0,1-.12-.08.21.21,0,0,1,0-.12V12.91a4.42,4.42,0,0,0-.1-1.06,2.18,2.18,0,0,0-.3-.69,1.21,1.21,0,0,0-.51-.44,1.53,1.53,0,0,0-.72-.16,1.86,1.86,0,0,0-1.07.38A6,6,0,0,0,89.87,12v5.38a.21.21,0,0,1,0,.12.24.24,0,0,1-.11.08.8.8,0,0,1-.22.05l-.35,0-.34,0a1,1,0,0,1-.22-.05.24.24,0,0,1-.11-.08.21.21,0,0,1,0-.12V6a.21.21,0,0,1,0-.12.24.24,0,0,1,.11-.08.48.48,0,0,1,.22,0,1.67,1.67,0,0,1,.34,0,1.78,1.78,0,0,1,.35,0,.42.42,0,0,1,.22,0,.24.24,0,0,1,.11.08.21.21,0,0,1,0,.12V10.6a4.86,4.86,0,0,1,1.23-.95,2.68,2.68,0,0,1,1.24-.31,2.8,2.8,0,0,1,1.29.26,2.28,2.28,0,0,1,.86.7,2.73,2.73,0,0,1,.46,1,5.79,5.79,0,0,1,.14,1.41Z"/><path class="cls-3" d="M98.89,7.12a.92.92,0,0,1-.19.68A1,1,0,0,1,98,8a1,1,0,0,1-.68-.18.93.93,0,0,1-.18-.66.92.92,0,0,1,.19-.68,1.39,1.39,0,0,1,1.37,0,.9.9,0,0,1,.18.66m-.16,10.3a.21.21,0,0,1,0,.12.28.28,0,0,1-.12.08.81.81,0,0,1-.21.05l-.35,0-.34,0a.9.9,0,0,1-.22-.05.2.2,0,0,1-.11-.08.21.21,0,0,1,0-.12V9.72a.2.2,0,0,1,0-.11.2.2,0,0,1,.11-.08.85.85,0,0,1,.22-.06h.69a.76.76,0,0,1,.21.06.28.28,0,0,1,.12.08.2.2,0,0,1,0,.11Z"/><path class="cls-3" d="M106.79,17.43a.19.19,0,0,1-.07.16.61.61,0,0,1-.18.07,1.6,1.6,0,0,1-.36,0,1.69,1.69,0,0,1-.35,0,.66.66,0,0,1-.2-.07.26.26,0,0,1-.06-.16v-.77a3.74,3.74,0,0,1-1.12.84,3,3,0,0,1-1.31.3,3.44,3.44,0,0,1-1.1-.16,2.28,2.28,0,0,1-.84-.46,2.08,2.08,0,0,1-.54-.73,2.44,2.44,0,0,1-.19-1,2.34,2.34,0,0,1,.26-1.12,2.23,2.23,0,0,1,.76-.8,3.89,3.89,0,0,1,1.22-.48,8,8,0,0,1,1.62-.15h1.06v-.6a2.71,2.71,0,0,0-.1-.79,1.3,1.3,0,0,0-.3-.57,1.35,1.35,0,0,0-.54-.34,2.51,2.51,0,0,0-.83-.12,3,3,0,0,0-.93.13,4.68,4.68,0,0,0-.73.27l-.52.27a.69.69,0,0,1-.31.13.16.16,0,0,1-.12,0,.18.18,0,0,1-.09-.1.38.38,0,0,1-.06-.17,1.66,1.66,0,0,1,0-.24,1.58,1.58,0,0,1,0-.34.46.46,0,0,1,.15-.23,1.72,1.72,0,0,1,.4-.26,5.06,5.06,0,0,1,.65-.28,5.5,5.5,0,0,1,.8-.2,4.3,4.3,0,0,1,.88-.08,4.41,4.41,0,0,1,1.41.19,2.17,2.17,0,0,1,1,.55,2.12,2.12,0,0,1,.52.9,4.33,4.33,0,0,1,.16,1.26Zm-1.4-3.52h-1.21a4.85,4.85,0,0,0-1,.1,2.45,2.45,0,0,0-.71.29,1.18,1.18,0,0,0-.41.46,1.42,1.42,0,0,0-.14.63,1.23,1.23,0,0,0,.38.95,1.51,1.51,0,0,0,1.07.36,2,2,0,0,0,1-.29,4.38,4.38,0,0,0,1-.86Z"/><path class="cls-3" d="M117.54,7.2a2.35,2.35,0,0,1,0,.28.47.47,0,0,1-.06.19.35.35,0,0,1-.09.11.28.28,0,0,1-.13,0h-3.11v9.61a.15.15,0,0,1,0,.11.15.15,0,0,1-.12.08,1,1,0,0,1-.22.06l-.36,0-.35,0a.94.94,0,0,1-.23-.06.15.15,0,0,1-.12-.08.21.21,0,0,1,0-.11V7.81h-3.11a.24.24,0,0,1-.12,0,.2.2,0,0,1-.09-.11.71.71,0,0,1-.06-.19,2.16,2.16,0,0,1,0-.28,2.33,2.33,0,0,1,0-.29.8.8,0,0,1,.06-.2.2.2,0,0,1,.09-.11.25.25,0,0,1,.12,0h7.7a.28.28,0,0,1,.13,0,.35.35,0,0,1,.09.11.52.52,0,0,1,.06.2,2.53,2.53,0,0,1,0,.29"/><path class="cls-3" d="M122,10.23v.31a.69.69,0,0,1,0,.2.67.67,0,0,1-.06.12.18.18,0,0,1-.11,0l-.17,0-.22-.08-.28-.07a1.15,1.15,0,0,0-.33,0,1,1,0,0,0-.42.09A1.43,1.43,0,0,0,120,11a3.58,3.58,0,0,0-.48.52c-.16.22-.34.48-.54.8v5.06a.21.21,0,0,1,0,.12.24.24,0,0,1-.11.08.81.81,0,0,1-.21.05l-.36,0-.34,0a.81.81,0,0,1-.21-.05.23.23,0,0,1-.12-.08.21.21,0,0,1,0-.12V9.72a.2.2,0,0,1,0-.11.22.22,0,0,1,.1-.09.53.53,0,0,1,.2,0h.63a.48.48,0,0,1,.19,0s.08.05.1.09a.2.2,0,0,1,0,.11v1.12a6,6,0,0,1,.59-.75,3.46,3.46,0,0,1,.53-.46,1.55,1.55,0,0,1,.49-.23,2.07,2.07,0,0,1,.49-.07l.26,0a1.6,1.6,0,0,1,.29.05l.28.07.18.09a.21.21,0,0,1,.06.08l0,.1a.72.72,0,0,1,0,.17v.32"/><path class="cls-3" d="M129.9,17.42a.21.21,0,0,1,0,.12.24.24,0,0,1-.11.08.72.72,0,0,1-.2.05l-.3,0-.32,0a.72.72,0,0,1-.2-.05.21.21,0,0,1-.1-.08.37.37,0,0,1,0-.12v-1a5,5,0,0,1-1.3,1.07,2.86,2.86,0,0,1-1.31.33,2.93,2.93,0,0,1-1.29-.26,2.17,2.17,0,0,1-.85-.7,2.81,2.81,0,0,1-.47-1,6.43,6.43,0,0,1-.14-1.42V9.72a.2.2,0,0,1,0-.11s.06-.06.12-.09a1,1,0,0,1,.22,0h.68a.9.9,0,0,1,.22,0,.29.29,0,0,1,.12.09.2.2,0,0,1,0,.11v4.49a4.5,4.5,0,0,0,.1,1.08,1.81,1.81,0,0,0,.3.69,1.39,1.39,0,0,0,.51.45,1.59,1.59,0,0,0,.72.15,1.79,1.79,0,0,0,1-.37,5.53,5.53,0,0,0,1.12-1.11V9.72a.2.2,0,0,1,0-.11s.06-.06.12-.09a.81.81,0,0,1,.21,0h.69a.9.9,0,0,1,.22,0,.33.33,0,0,1,.11.09.15.15,0,0,1,0,.11Z"/><path class="cls-3" d="M137,15.33a2.52,2.52,0,0,1-.21,1,2.26,2.26,0,0,1-.62.78,2.88,2.88,0,0,1-1,.48,4.7,4.7,0,0,1-1.23.16,4.93,4.93,0,0,1-.78-.06,5,5,0,0,1-.67-.17,3.46,3.46,0,0,1-.5-.2,2.72,2.72,0,0,1-.3-.19.46.46,0,0,1-.13-.25,1.47,1.47,0,0,1-.05-.41,2.16,2.16,0,0,1,0-.28c0-.07,0-.13,0-.18a.25.25,0,0,1,.08-.1.17.17,0,0,1,.1,0,.56.56,0,0,1,.28.12c.12.08.28.16.45.25a3.89,3.89,0,0,0,.64.25,2.77,2.77,0,0,0,.85.12,2.57,2.57,0,0,0,.65-.08,1.52,1.52,0,0,0,.5-.22.92.92,0,0,0,.33-.38,1.2,1.2,0,0,0,.12-.55.9.9,0,0,0-.17-.55,1.52,1.52,0,0,0-.44-.39,3.48,3.48,0,0,0-.61-.31l-.71-.28a6.43,6.43,0,0,1-.71-.32,3.18,3.18,0,0,1-.62-.45,2.08,2.08,0,0,1-.44-.64,2.12,2.12,0,0,1-.17-.88,2.19,2.19,0,0,1,.18-.87,1.93,1.93,0,0,1,.52-.72,2.6,2.6,0,0,1,.88-.5,3.53,3.53,0,0,1,1.23-.19,3.14,3.14,0,0,1,.61.05,2.72,2.72,0,0,1,.56.13,2.47,2.47,0,0,1,.42.16,2.4,2.4,0,0,1,.27.16l.12.12a.42.42,0,0,1,0,.12s0,.09,0,.15a1.77,1.77,0,0,1,0,.24,1.93,1.93,0,0,1,0,.25.58.58,0,0,1-.05.17.2.2,0,0,1-.07.1l-.09,0a.46.46,0,0,1-.22-.09,2.63,2.63,0,0,0-.38-.2,3.39,3.39,0,0,0-.54-.2,2.28,2.28,0,0,0-.72-.1,2.35,2.35,0,0,0-.63.08,1.36,1.36,0,0,0-.45.23,1,1,0,0,0-.27.36,1.08,1.08,0,0,0-.09.44.9.9,0,0,0,.18.57,1.52,1.52,0,0,0,.44.39,3.26,3.26,0,0,0,.62.31l.72.28q.36.15.72.33a2.54,2.54,0,0,1,.63.44,1.84,1.84,0,0,1,.44.61,2.06,2.06,0,0,1,.16.86"/><path class="cls-3" d="M142.47,16.86a2,2,0,0,1,0,.39.41.41,0,0,1-.11.21.53.53,0,0,1-.2.13,1.41,1.41,0,0,1-.31.1l-.38.07-.39,0a2.9,2.9,0,0,1-1-.16,1.64,1.64,0,0,1-.7-.47,2,2,0,0,1-.39-.82,4.42,4.42,0,0,1-.13-1.16v-4.5h-1.08a.23.23,0,0,1-.2-.14.93.93,0,0,1-.08-.44,1.87,1.87,0,0,1,0-.27.47.47,0,0,1,.06-.19.18.18,0,0,1,.09-.1.21.21,0,0,1,.12,0h1.07V7.67a.21.21,0,0,1,.14-.2.58.58,0,0,1,.22-.06h.69a.64.64,0,0,1,.22.06.24.24,0,0,1,.11.09.2.2,0,0,1,0,.11V9.5h2a.27.27,0,0,1,.12,0,.3.3,0,0,1,.09.1.74.74,0,0,1,0,.19,1.06,1.06,0,0,1,0,.27.82.82,0,0,1-.08.44.23.23,0,0,1-.2.14h-2V15a2.41,2.41,0,0,0,.24,1.21.88.88,0,0,0,.84.41,1.78,1.78,0,0,0,.35,0l.27-.08.21-.09.15,0a.11.11,0,0,1,.08,0,.1.1,0,0,1,.06.08.53.53,0,0,1,0,.16,1,1,0,0,1,0,.26"/><path class="cls-4" d="M41.09,21.49c0,.06,0,.11,0,.14a.46.46,0,0,1,0,.09s0,0,0,0l-.06,0a.21.21,0,0,1-.12,0l-.17-.06-.25-.08a2.68,2.68,0,0,0-.33,0,1,1,0,0,0-.44.09.77.77,0,0,0-.3.27,1.18,1.18,0,0,0-.16.48,4.63,4.63,0,0,0,0,.71v.67h1.4l.08,0s0,0,.05.05a.42.42,0,0,1,0,.1.71.71,0,0,1,0,.15.46.46,0,0,1,0,.23.14.14,0,0,1-.13.08h-1.4v5.19a.2.2,0,0,1,0,.07l-.06.05-.13,0h-.35l-.12,0-.06-.05a.25.25,0,0,1,0-.07V24.42h-.85a.13.13,0,0,1-.13-.08.37.37,0,0,1,0-.23.71.71,0,0,1,0-.15.42.42,0,0,1,0-.1.12.12,0,0,1,.05-.05l.08,0h.85v-.65a4.24,4.24,0,0,1,.11-1,1.73,1.73,0,0,1,.33-.68,1.18,1.18,0,0,1,.54-.39,2.2,2.2,0,0,1,.76-.12,1.93,1.93,0,0,1,.42.05,1.26,1.26,0,0,1,.3.08.51.51,0,0,1,.14.08.19.19,0,0,1,0,.09.34.34,0,0,1,0,.12s0,.09,0,.14"/><path class="cls-4" d="M46.45,26.7A4.1,4.1,0,0,1,46.27,28a2.88,2.88,0,0,1-.52,1,2.3,2.3,0,0,1-.88.65,2.84,2.84,0,0,1-1.21.24,3,3,0,0,1-1.16-.21,2.15,2.15,0,0,1-.84-.61,2.43,2.43,0,0,1-.5-.94,4.75,4.75,0,0,1,0-2.52,2.77,2.77,0,0,1,.53-1,2.37,2.37,0,0,1,.87-.65,2.89,2.89,0,0,1,1.22-.23,3.16,3.16,0,0,1,1.16.2,2.23,2.23,0,0,1,.84.6,2.58,2.58,0,0,1,.5,1,4.39,4.39,0,0,1,.17,1.25m-.79.07a3.93,3.93,0,0,0-.1-.92,2.24,2.24,0,0,0-.31-.78,1.59,1.59,0,0,0-.59-.53,1.88,1.88,0,0,0-.93-.2,2,2,0,0,0-.88.18,1.49,1.49,0,0,0-.6.51,2,2,0,0,0-.35.76,3.64,3.64,0,0,0-.11.95,4.59,4.59,0,0,0,.09.93,2.28,2.28,0,0,0,.31.78,1.67,1.67,0,0,0,.59.53,2.31,2.31,0,0,0,1.81,0,1.75,1.75,0,0,0,.61-.5,2.29,2.29,0,0,0,.34-.76,3.71,3.71,0,0,0,.12-1"/><path class="cls-4" d="M51,24.21c0,.06,0,.11,0,.16a.2.2,0,0,1,0,.11s0,0,0,.06a.08.08,0,0,1-.06,0l-.13,0-.18-.06-.22-.06a1.12,1.12,0,0,0-.27,0,.8.8,0,0,0-.33.08,1.2,1.2,0,0,0-.34.23,3.24,3.24,0,0,0-.37.42c-.14.18-.28.4-.44.65v3.85a.25.25,0,0,1,0,.07l-.06.05-.11,0h-.37l-.12,0s0,0,0-.05a.11.11,0,0,1,0-.07V23.92a.08.08,0,0,1,0-.07s0,0,0-.05a.21.21,0,0,1,.12,0h.34a.2.2,0,0,1,.11,0,.08.08,0,0,1,.05.05.08.08,0,0,1,0,.07v.9a4.54,4.54,0,0,1,.45-.58,2.93,2.93,0,0,1,.4-.35,1.34,1.34,0,0,1,.37-.16,1.47,1.47,0,0,1,.36,0h.19l.23,0,.22.06a.31.31,0,0,1,.13.06l.06,0s0,0,0,.06a.22.22,0,0,1,0,.09c0,.05,0,.1,0,.16"/><path class="cls-4" d="M60.17,28.63a.45.45,0,0,1,0,.12s0,.07,0,.1l0,.08A.38.38,0,0,1,60,29a1.22,1.22,0,0,1-.26.2,3.22,3.22,0,0,1-.5.27,5,5,0,0,1-.71.22,3.85,3.85,0,0,1-.87.1,3.57,3.57,0,0,1-1.38-.27,2.84,2.84,0,0,1-1.06-.78,3.59,3.59,0,0,1-.68-1.27,6.54,6.54,0,0,1,0-3.51,3.89,3.89,0,0,1,.71-1.34,3,3,0,0,1,1.09-.84,3.23,3.23,0,0,1,1.41-.29,4.14,4.14,0,0,1,1.33.24,3.26,3.26,0,0,1,.53.25,2.39,2.39,0,0,1,.31.22l.11.12,0,.09s0,.07,0,.11,0,.08,0,.13a.61.61,0,0,1,0,.15.37.37,0,0,1,0,.12s0,.06-.06.07A.08.08,0,0,1,60,23a.49.49,0,0,1-.25-.12,4.89,4.89,0,0,0-.42-.29,3.22,3.22,0,0,0-.64-.28,2.67,2.67,0,0,0-.9-.13,2.31,2.31,0,0,0-1,.23,2.19,2.19,0,0,0-.82.67,3.22,3.22,0,0,0-.53,1.1,6.1,6.1,0,0,0,0,2.94,3.17,3.17,0,0,0,.51,1.06,2.14,2.14,0,0,0,.83.66,2.59,2.59,0,0,0,1.11.22,2.69,2.69,0,0,0,.89-.13,3.62,3.62,0,0,0,.65-.28c.18-.11.32-.2.44-.29a.51.51,0,0,1,.27-.12h.06a.09.09,0,0,1,0,.06.27.27,0,0,1,0,.11.72.72,0,0,1,0,.17"/><path class="cls-4" d="M66.37,26.7A4.1,4.1,0,0,1,66.19,28a2.88,2.88,0,0,1-.52,1,2.34,2.34,0,0,1-.87.65,2.89,2.89,0,0,1-1.22.24,3,3,0,0,1-1.16-.21,2.15,2.15,0,0,1-.84-.61,2.57,2.57,0,0,1-.5-.94,4.75,4.75,0,0,1,0-2.52,2.94,2.94,0,0,1,.53-1,2.37,2.37,0,0,1,.87-.65,2.89,2.89,0,0,1,1.22-.23,3.16,3.16,0,0,1,1.16.2,2.23,2.23,0,0,1,.84.6,2.58,2.58,0,0,1,.5,1,4.39,4.39,0,0,1,.17,1.25m-.79.07a4.55,4.55,0,0,0-.1-.92,2.24,2.24,0,0,0-.31-.78,1.59,1.59,0,0,0-.59-.53,1.88,1.88,0,0,0-.93-.2,1.93,1.93,0,0,0-.87.18,1.52,1.52,0,0,0-.61.51,2,2,0,0,0-.35.76,3.64,3.64,0,0,0-.12.95,4.57,4.57,0,0,0,.1.93,2.1,2.1,0,0,0,.32.78,1.52,1.52,0,0,0,.59.53,1.93,1.93,0,0,0,.92.19,2,2,0,0,0,.88-.18,1.66,1.66,0,0,0,.61-.5,2.29,2.29,0,0,0,.34-.76,3.71,3.71,0,0,0,.12-1"/><path class="cls-4" d="M72.41,29.61a.25.25,0,0,1,0,.07l-.06,0-.12,0h-.36a.23.23,0,0,1-.11,0l-.07,0a.2.2,0,0,1,0-.07V26.23a3.82,3.82,0,0,0-.08-.85,1.76,1.76,0,0,0-.25-.57,1.15,1.15,0,0,0-.42-.37,1.38,1.38,0,0,0-.59-.12,1.52,1.52,0,0,0-.87.3,4.86,4.86,0,0,0-.91.91v4.08a.25.25,0,0,1,0,.07s0,0-.06,0a.34.34,0,0,1-.12,0H68l-.12,0s0,0,0,0a.11.11,0,0,1,0-.07V23.92a.08.08,0,0,1,0-.07s0,0,0-.05a.23.23,0,0,1,.11,0h.36a.15.15,0,0,1,.1,0,.08.08,0,0,1,0,.05.14.14,0,0,1,0,.07v.8a3.64,3.64,0,0,1,1-.79,2.16,2.16,0,0,1,1.88-.05,1.62,1.62,0,0,1,.62.5,2.14,2.14,0,0,1,.34.75,4.39,4.39,0,0,1,.11,1Z"/><path class="cls-4" d="M76.83,29.27a.62.62,0,0,1,0,.21.19.19,0,0,1-.07.13.56.56,0,0,1-.14.09l-.2.07-.26,0-.25,0a1.94,1.94,0,0,1-.72-.12,1.21,1.21,0,0,1-.49-.34,1.56,1.56,0,0,1-.27-.58,3.38,3.38,0,0,1-.08-.83V24.42h-.85a.14.14,0,0,1-.14-.08.37.37,0,0,1,0-.23c0-.06,0-.1,0-.14a.23.23,0,0,1,0-.1l.06-.07h.93v-1.4a.17.17,0,0,1,0-.07.1.1,0,0,1,.06-.05.35.35,0,0,1,.12,0h.36a.35.35,0,0,1,.12,0l.06.05a.19.19,0,0,1,0,.07v1.4h1.64a.13.13,0,0,1,.06.07.23.23,0,0,1,0,.1.57.57,0,0,1,0,.14.37.37,0,0,1,0,.23.15.15,0,0,1-.13.08H75.08v3.44a2.19,2.19,0,0,0,.18,1,.71.71,0,0,0,.68.34.77.77,0,0,0,.27,0l.22-.06.16-.07a.17.17,0,0,1,.11,0h.06s0,0,0,0l0,.09v.14"/><path class="cls-4" d="M82.58,26.47a.35.35,0,0,1-.12.31.4.4,0,0,1-.23.09H78.35a3.93,3.93,0,0,0,.11.95,1.7,1.7,0,0,0,.34.73,1.47,1.47,0,0,0,.62.47,2.36,2.36,0,0,0,.94.17,3.71,3.71,0,0,0,.71-.07,4.13,4.13,0,0,0,.55-.16,2.34,2.34,0,0,0,.37-.15.55.55,0,0,1,.21-.07l.07,0a.1.1,0,0,1,0,.06.15.15,0,0,1,0,.1.76.76,0,0,1,0,.16v.08s0,.06,0,.08l0,.07,0,.06a.76.76,0,0,1-.19.11l-.43.16-.61.14a4.59,4.59,0,0,1-.76.06,3.26,3.26,0,0,1-1.17-.2,2.12,2.12,0,0,1-.85-.58,2.47,2.47,0,0,1-.52-1,4.1,4.1,0,0,1-.19-1.33,4.27,4.27,0,0,1,.19-1.29,2.83,2.83,0,0,1,.53-1,2.22,2.22,0,0,1,.84-.61,2.67,2.67,0,0,1,1.08-.21,2.55,2.55,0,0,1,1.09.21,2.14,2.14,0,0,1,.75.57,2.37,2.37,0,0,1,.42.84,3.38,3.38,0,0,1,.14,1Zm-.77-.22a2.09,2.09,0,0,0-.42-1.42,1.59,1.59,0,0,0-1.26-.5,1.62,1.62,0,0,0-.75.16,1.52,1.52,0,0,0-.55.42,2.06,2.06,0,0,0-.34.62,2.49,2.49,0,0,0-.14.72Z"/><path class="cls-4" d="M92.16,29.61a.25.25,0,0,1,0,.07l-.06,0-.12,0h-.37l-.11,0a.09.09,0,0,1-.06,0,.2.2,0,0,1,0-.07v-3.5a3.2,3.2,0,0,0-.08-.73,1.54,1.54,0,0,0-.22-.57,1.24,1.24,0,0,0-.39-.37,1.22,1.22,0,0,0-.56-.12,1.35,1.35,0,0,0-.8.3,5.52,5.52,0,0,0-.89.91v4.08a.25.25,0,0,1,0,.07.09.09,0,0,1-.06,0,.23.23,0,0,1-.11,0h-.36a.23.23,0,0,1-.11,0s-.06,0-.07,0,0-.05,0-.07v-3.5a2.72,2.72,0,0,0-.08-.73,1.74,1.74,0,0,0-.23-.57,1.12,1.12,0,0,0-.38-.37,1.25,1.25,0,0,0-.56-.12,1.33,1.33,0,0,0-.8.3,5.15,5.15,0,0,0-.89.91v4.08a.11.11,0,0,1,0,.07.09.09,0,0,1-.06,0,.23.23,0,0,1-.11,0h-.36l-.12,0a.09.09,0,0,1-.06,0,.2.2,0,0,1,0-.07V23.92a.15.15,0,0,1,0-.07.1.1,0,0,1,.06-.05.18.18,0,0,1,.11,0h.35a.18.18,0,0,1,.11,0,.12.12,0,0,1,0,.05.14.14,0,0,1,0,.07v.8a3.56,3.56,0,0,1,.93-.79,1.79,1.79,0,0,1,.87-.24,2.49,2.49,0,0,1,.64.08,1.72,1.72,0,0,1,.49.24,1.41,1.41,0,0,1,.36.37,1.92,1.92,0,0,1,.25.47,5.7,5.7,0,0,1,.56-.55,3,3,0,0,1,.5-.36,1.73,1.73,0,0,1,.45-.19,1.65,1.65,0,0,1,.43-.06,1.94,1.94,0,0,1,.91.19,1.6,1.6,0,0,1,.59.5,2.54,2.54,0,0,1,.32.75,4.45,4.45,0,0,1,.1.91Z"/><path class="cls-4" d="M98.94,26.68A5.28,5.28,0,0,1,98.78,28a3,3,0,0,1-.48,1,2.06,2.06,0,0,1-.77.63,2.45,2.45,0,0,1-1,.22,1.86,1.86,0,0,1-.48-.06,1.35,1.35,0,0,1-.42-.16,2.87,2.87,0,0,1-.43-.28,5.37,5.37,0,0,1-.44-.41v2.93a.14.14,0,0,1,0,.07s0,0-.06.06l-.11,0h-.37l-.11,0s0,0-.06-.06a.14.14,0,0,1,0-.07V23.92a.24.24,0,0,1,0-.08.12.12,0,0,1,.05-.05l.11,0h.32l.1,0a.13.13,0,0,1,.07.05.24.24,0,0,1,0,.08v.82a5.3,5.3,0,0,1,.5-.47,3.43,3.43,0,0,1,.48-.33,2.35,2.35,0,0,1,2.07,0,1.93,1.93,0,0,1,.71.65,2.8,2.8,0,0,1,.39.95,4.79,4.79,0,0,1,.13,1.16m-.79.12a6.74,6.74,0,0,0-.07-.92,2.62,2.62,0,0,0-.26-.79,1.54,1.54,0,0,0-.48-.56,1.33,1.33,0,0,0-.75-.2,1.61,1.61,0,0,0-.44.06,1.59,1.59,0,0,0-.44.21,2.91,2.91,0,0,0-.47.37,5,5,0,0,0-.52.57V28a4.79,4.79,0,0,0,.9.87,1.51,1.51,0,0,0,.9.31,1.32,1.32,0,0,0,.75-.21,1.65,1.65,0,0,0,.5-.55,2.68,2.68,0,0,0,.29-.78,4.12,4.12,0,0,0,.09-.86"/><path class="cls-4" d="M105.43,26.7a4.11,4.11,0,0,1-.17,1.25,2.88,2.88,0,0,1-.52,1,2.3,2.3,0,0,1-.88.65,2.87,2.87,0,0,1-1.21.24,3,3,0,0,1-1.16-.21,2.08,2.08,0,0,1-.84-.61,2.43,2.43,0,0,1-.5-.94,4.2,4.2,0,0,1-.17-1.27,4.5,4.5,0,0,1,.17-1.25,2.77,2.77,0,0,1,.53-1,2.42,2.42,0,0,1,.86-.65,2.92,2.92,0,0,1,1.22-.23,3.22,3.22,0,0,1,1.17.2,2.31,2.31,0,0,1,.84.6,2.58,2.58,0,0,1,.5,1,4.41,4.41,0,0,1,.16,1.25m-.79.07a4.56,4.56,0,0,0-.09-.92,2.45,2.45,0,0,0-.31-.78,1.59,1.59,0,0,0-.59-.53,1.88,1.88,0,0,0-.93-.2,2,2,0,0,0-.88.18,1.56,1.56,0,0,0-.6.51,2,2,0,0,0-.35.76,3.64,3.64,0,0,0-.12.95,4.57,4.57,0,0,0,.1.93,2.09,2.09,0,0,0,.31.78,1.59,1.59,0,0,0,.59.53,2.31,2.31,0,0,0,1.81,0,1.63,1.63,0,0,0,.6-.5,2.12,2.12,0,0,0,.35-.76,3.72,3.72,0,0,0,.11-1"/><path class="cls-4" d="M110,24.21v.16a.52.52,0,0,0,0,.11l0,.06-.06,0-.13,0-.18-.06-.22-.06a1.12,1.12,0,0,0-.27,0,.8.8,0,0,0-.33.08,1.07,1.07,0,0,0-.34.23,3.25,3.25,0,0,0-.38.42c-.13.18-.28.4-.44.65v3.85a.2.2,0,0,1,0,.07l-.07.05-.1,0h-.37l-.12,0s-.05,0-.06-.05a.25.25,0,0,1,0-.07V23.92a.14.14,0,0,1,0-.07.1.1,0,0,1,.06-.05.2.2,0,0,1,.11,0h.35a.16.16,0,0,1,.11,0,.12.12,0,0,1,0,.05.14.14,0,0,1,0,.07v.9a4.54,4.54,0,0,1,.45-.58,2.91,2.91,0,0,1,.39-.35,1.66,1.66,0,0,1,.37-.16,1.55,1.55,0,0,1,.37,0h.19l.23,0,.22.06a.4.4,0,0,1,.13.06s0,0,0,0l0,.06s0,.05,0,.09v.16"/><path class="cls-4" d="M114.77,29.61a.1.1,0,0,1,0,.09.28.28,0,0,1-.11.05l-.18,0-.18,0a.33.33,0,0,1-.12-.05.13.13,0,0,1,0-.09V29a2.68,2.68,0,0,1-.84.64,2.19,2.19,0,0,1-1,.23,2.49,2.49,0,0,1-.8-.12,1.46,1.46,0,0,1-.6-.33,1.62,1.62,0,0,1-.38-.52,1.73,1.73,0,0,1-.13-.69,1.63,1.63,0,0,1,.75-1.41,2.81,2.81,0,0,1,.86-.35,5.52,5.52,0,0,1,1.12-.11h.9v-.49a2.59,2.59,0,0,0-.07-.65,1,1,0,0,0-.25-.46,1.06,1.06,0,0,0-.44-.29,2.1,2.1,0,0,0-.66-.09,2.43,2.43,0,0,0-.68.09,3.78,3.78,0,0,0-.52.2l-.38.21a.52.52,0,0,1-.21.09h-.07l0-.05a.24.24,0,0,1,0-.09.51.51,0,0,1,0-.13,1,1,0,0,1,0-.21.3.3,0,0,1,.09-.15,1.21,1.21,0,0,1,.28-.19,3.49,3.49,0,0,1,.47-.2,4.14,4.14,0,0,1,.56-.15,4,4,0,0,1,.6,0,2.88,2.88,0,0,1,1,.14,1.7,1.7,0,0,1,.65.4,1.65,1.65,0,0,1,.36.65,3.43,3.43,0,0,1,.1.88ZM114,26.92h-1a3.2,3.2,0,0,0-.8.09,1.51,1.51,0,0,0-.56.24,1,1,0,0,0-.34.37,1.16,1.16,0,0,0-.11.51,1.06,1.06,0,0,0,.31.78,1.26,1.26,0,0,0,.88.29,1.6,1.6,0,0,0,.83-.23,3.86,3.86,0,0,0,.82-.71Z"/><path class="cls-4" d="M119.74,24.21v.16s0,.08,0,.11l0,.06-.06,0-.14,0-.17-.06-.22-.06a1.12,1.12,0,0,0-.27,0,.72.72,0,0,0-.32.08,1,1,0,0,0-.35.23,4.19,4.19,0,0,0-.38.42c-.13.18-.28.4-.43.65v3.85a.25.25,0,0,1,0,.07s0,0-.06.05l-.12,0h-.36l-.12,0s0,0-.06-.05,0-.05,0-.07V23.92s0-.05,0-.07a.15.15,0,0,1,.06-.05.21.21,0,0,1,.12,0h.34a.18.18,0,0,1,.11,0l0,.05a.14.14,0,0,1,0,.07v.9a4.54,4.54,0,0,1,.45-.58,2.44,2.44,0,0,1,.4-.35,1.59,1.59,0,0,1,.36-.16,1.55,1.55,0,0,1,.37,0h.19l.23,0,.22.06a.4.4,0,0,1,.13.06s0,0,0,0a.11.11,0,0,1,0,.06.22.22,0,0,1,0,.09v.16"/><path class="cls-4" d="M123,29.73l-.79,2.13a.22.22,0,0,1-.13.12.82.82,0,0,1-.32.05l-.19,0a.16.16,0,0,1-.11,0s0,0,0-.09a.22.22,0,0,1,0-.13l.81-2a.18.18,0,0,1-.09-.06.2.2,0,0,1,0-.09L120.07,24a.44.44,0,0,1,0-.14.11.11,0,0,1,0-.08.18.18,0,0,1,.11,0h.44a.28.28,0,0,1,.13,0,.09.09,0,0,1,.06,0,.2.2,0,0,1,0,.08l1.78,5h0l1.75-5a.23.23,0,0,1,.08-.12.57.57,0,0,1,.15,0h.4a.24.24,0,0,1,.12,0,.11.11,0,0,1,0,.09.39.39,0,0,1,0,.13Z"/><path class="cls-4" d="M135.2,29.48a.49.49,0,0,1,0,.15.1.1,0,0,1,0,.09.33.33,0,0,1-.13,0h-.43l-.12,0a.15.15,0,0,1-.06-.05.16.16,0,0,1,0-.07l-.78-2.17h-3.57l-.75,2.15a.2.2,0,0,1,0,.08.18.18,0,0,1-.07,0l-.12,0h-.42a.32.32,0,0,1-.13-.05.1.1,0,0,1,0-.09.5.5,0,0,1,0-.14l2.85-7.74a.18.18,0,0,1,.06-.09.19.19,0,0,1,.09,0l.15,0h.39l.14,0a.23.23,0,0,1,.1,0,.26.26,0,0,1,0,.09Zm-3.38-7.06h0l-1.53,4.38h3.11Z"/><path class="cls-4" d="M139.44,24.21c0,.06,0,.11,0,.16a.35.35,0,0,1,0,.11s0,0,0,.06l-.06,0-.14,0-.17-.06-.22-.06a1.09,1.09,0,0,0-.26,0,.84.84,0,0,0-.34.08,1.2,1.2,0,0,0-.34.23,4.19,4.19,0,0,0-.38.42c-.13.18-.27.4-.43.65v3.85a.25.25,0,0,1,0,.07s0,0-.06.05l-.11,0h-.37l-.11,0s-.05,0-.06-.05a.11.11,0,0,1,0-.07V23.92a.08.08,0,0,1,0-.07.1.1,0,0,1,.06-.05.16.16,0,0,1,.11,0h.34a.18.18,0,0,1,.11,0s.05,0,.05.05a.14.14,0,0,1,0,.07v.9a4.54,4.54,0,0,1,.45-.58,2.44,2.44,0,0,1,.4-.35,1.48,1.48,0,0,1,.37-.16,1.42,1.42,0,0,1,.36,0h.19l.23,0,.22.06a.48.48,0,0,1,.14.06l.05,0s0,0,0,.06a.22.22,0,0,1,0,.09.81.81,0,0,1,0,.16"/><path class="cls-4" d="M143.2,29.27a1.06,1.06,0,0,1,0,.21.23.23,0,0,1-.07.13.56.56,0,0,1-.14.09l-.21.07-.25,0-.26,0a1.94,1.94,0,0,1-.72-.12,1.11,1.11,0,0,1-.48-.34,1.3,1.3,0,0,1-.27-.58,3.34,3.34,0,0,1-.09-.83V24.42h-.85a.13.13,0,0,1-.13-.08.37.37,0,0,1-.06-.23.52.52,0,0,1,0-.14.23.23,0,0,1,0-.1.13.13,0,0,1,.06-.07h.92v-1.4a.19.19,0,0,1,0-.07.1.1,0,0,1,.06-.05.29.29,0,0,1,.11,0h.37a.29.29,0,0,1,.11,0,.1.1,0,0,1,.06.05.19.19,0,0,1,0,.07v1.4h1.65l.06.07a.23.23,0,0,1,0,.1.57.57,0,0,1,0,.14.46.46,0,0,1,0,.23.15.15,0,0,1-.14.08h-1.57v3.44a2,2,0,0,0,.19,1,.7.7,0,0,0,.67.34.77.77,0,0,0,.27,0l.22-.06L143,29a.18.18,0,0,1,.12,0h.05s0,0,0,0,0,.06,0,.09a.57.57,0,0,1,0,.14"/></g></g></svg>