<svg xmlns="http://www.w3.org/2000/svg" viewBox="0 0 302.6 74.98"><defs><style>.cls-1{fill:#9e1f63;}.cls-2{fill:#f7941d;}.cls-3{fill:#231f20;}.cls-4{font-size:21.15px;fill:#808285;font-family:Calibri-Light, Calibri;font-weight:300;}.cls-5{letter-spacing:-0.02em;}.cls-6{letter-spacing:-0.01em;}.cls-7{letter-spacing:-0.02em;}.cls-8{letter-spacing:0em;}</style></defs><g id="Layer_2" data-name="Layer 2"><g id="Layer_1-2" data-name="Layer 1"><polygon class="cls-1" points="0 8.29 0 0 63.74 0 63.74 8.29 33.31 8.29 63.74 34.91 63.74 44.35 33.84 18.21 0 48.41 0 38.03 33.31 8.29 0 8.29"/><polygon class="cls-2" points="63.74 48.41 63.74 40.12 0 40.12 0 48.41 33.31 48.41 63.74 48.41"/><polygon class="cls-1" points="11.16 68.19 15.21 74.98 33.84 58.34 52.05 74.26 55.11 67.49 33.31 48.41 11.16 68.19"/><path class="cls-3" d="M95.23,36.41a.51.51,0,0,1,0,.22.35.35,0,0,1-.16.16,1.88,1.88,0,0,1-.35.1,3.21,3.21,0,0,1-.57,0,5.23,5.23,0,0,1-.68,0,1.18,1.18,0,0,1-.51-.16,1.1,1.1,0,0,1-.32-.28L83,24.2V36.45a.36.36,0,0,1-.06.2.33.33,0,0,1-.18.14,1.64,1.64,0,0,1-.33.1,3,3,0,0,1-.56,0,2.8,2.8,0,0,1-.53,0,1.68,1.68,0,0,1-.35-.1.27.27,0,0,1-.18-.14.3.3,0,0,1-.06-.2V13.32a.38.38,0,0,1,.24-.35l.35-.09a3.83,3.83,0,0,1,.53,0,4.06,4.06,0,0,1,.56,0l.33.09a.39.39,0,0,1,.18.15.39.39,0,0,1,.06.2V24.16l9.24-10.84a1,1,0,0,1,.24-.21.73.73,0,0,1,.29-.15,1.5,1.5,0,0,1,.39-.08,4,4,0,0,1,.55,0,3.37,3.37,0,0,1,.53,0,1.31,1.31,0,0,1,.33.1c.09,0,.14.09.16.14a.69.69,0,0,1,0,.2.89.89,0,0,1-.09.39,2.76,2.76,0,0,1-.35.43l-8.69,10,9.28,11.63a2.53,2.53,0,0,1,.31.46.52.52,0,0,1,.06.22"/><path class="cls-3" d="M111.49,36.45a.52.52,0,0,1,0,.21.29.29,0,0,1-.18.13,1.1,1.1,0,0,1-.32.1,2.59,2.59,0,0,1-.51,0,2.7,2.7,0,0,1-.53,0,.94.94,0,0,1-.31-.1.35.35,0,0,1-.16-.13.52.52,0,0,1,0-.21V34.09a10.29,10.29,0,0,1-2.82,2.31,5.77,5.77,0,0,1-2.74.73,6.31,6.31,0,0,1-2.76-.56,4.79,4.79,0,0,1-1.82-1.5,6,6,0,0,1-1-2.2,13.14,13.14,0,0,1-.31-3V19.76a.41.41,0,0,1,.05-.21.35.35,0,0,1,.18-.15,1.15,1.15,0,0,1,.34-.1l.53,0,.53,0a1.15,1.15,0,0,1,.34.1.68.68,0,0,1,.18.15.8.8,0,0,1,0,.21v9.88a10.86,10.86,0,0,0,.23,2.52,4.91,4.91,0,0,0,.73,1.67,3.1,3.1,0,0,0,1.22,1.08,4,4,0,0,0,1.75.37,4.33,4.33,0,0,0,2.53-.89,15.37,15.37,0,0,0,2.68-2.65v-12a.54.54,0,0,1,0-.21.43.43,0,0,1,.17-.15,1.23,1.23,0,0,1,.35-.1l.54,0,.52,0a1,1,0,0,1,.33.1.46.46,0,0,1,.18.15.41.41,0,0,1,0,.21Z"/><path class="cls-3" d="M130.51,27.24a1,1,0,0,1-.35.91,1.16,1.16,0,0,1-.68.26H118.1a12.23,12.23,0,0,0,.3,2.81,5.73,5.73,0,0,0,1,2.14,4.67,4.67,0,0,0,1.82,1.38,7.13,7.13,0,0,0,2.77.47,9.92,9.92,0,0,0,2.08-.2,14,14,0,0,0,1.6-.45c.45-.17.82-.32,1.1-.46a2.24,2.24,0,0,1,.62-.19.36.36,0,0,1,.36.23,1,1,0,0,1,.07.3,2.71,2.71,0,0,1,0,.46c0,.08,0,.17,0,.24s0,.15,0,.23a.55.55,0,0,1-.09.19.75.75,0,0,1-.13.18,3.12,3.12,0,0,1-.58.33,8.66,8.66,0,0,1-1.26.46,14.46,14.46,0,0,1-1.8.4,11.65,11.65,0,0,1-2.19.2,9.55,9.55,0,0,1-3.43-.58,6.37,6.37,0,0,1-2.51-1.72A7.27,7.27,0,0,1,116.27,32a12.73,12.73,0,0,1-.53-3.88,12.12,12.12,0,0,1,.55-3.81,7.71,7.71,0,0,1,1.55-2.84,6.61,6.61,0,0,1,2.44-1.79,7.82,7.82,0,0,1,3.18-.63,7.46,7.46,0,0,1,3.22.63,6.35,6.35,0,0,1,2.19,1.68,7.29,7.29,0,0,1,1.25,2.47,11.36,11.36,0,0,1,.39,2.95Zm-2.27-.64A5.88,5.88,0,0,0,127,22.46a4.57,4.57,0,0,0-3.71-1.5,4.72,4.72,0,0,0-3.81,1.71,5.48,5.48,0,0,0-1,1.81,7.12,7.12,0,0,0-.41,2.12Z"/><path class="cls-3" d="M148.35,36.45a.34.34,0,0,1-.24.34,1,1,0,0,1-.33.1,2.64,2.64,0,0,1-.52,0,2.92,2.92,0,0,1-.55,0,.93.93,0,0,1-.32-.1.33.33,0,0,1-.18-.13.41.41,0,0,1-.05-.21v-9.9a10.66,10.66,0,0,0-.25-2.52,4.85,4.85,0,0,0-.72-1.66A3.37,3.37,0,0,0,144,21.29a3.93,3.93,0,0,0-1.73-.36,4.47,4.47,0,0,0-2.56.88A15.21,15.21,0,0,0,137,24.48v12a.42.42,0,0,1-.06.21.3.3,0,0,1-.17.13,1.08,1.08,0,0,1-.33.1,2.87,2.87,0,0,1-.55,0,2.48,2.48,0,0,1-.51,0,1.23,1.23,0,0,1-.35-.1.37.37,0,0,1-.18-.13.52.52,0,0,1,0-.21V19.76a.52.52,0,0,1,0-.21.46.46,0,0,1,.18-.15,1.21,1.21,0,0,1,.32-.1l.5,0,.53,0a.94.94,0,0,1,.31.1.31.31,0,0,1,.15.15.42.42,0,0,1,.06.21v2.35a10.32,10.32,0,0,1,2.82-2.31,5.89,5.89,0,0,1,2.74-.73,6.14,6.14,0,0,1,2.76.56,5,5,0,0,1,1.83,1.48,6.18,6.18,0,0,1,1,2.21,13,13,0,0,1,.31,3Z"/><path class="cls-3" d="M159.45,36.81l-2.32,6.25a.8.8,0,0,1-.39.35,2.26,2.26,0,0,1-.94.13,4.53,4.53,0,0,1-.56,0,1,1,0,0,1-.34-.14.4.4,0,0,1-.14-.27.72.72,0,0,1,.07-.36l2.37-5.94a.8.8,0,0,1-.27-.18.94.94,0,0,1-.14-.26L150.73,20.1a1.28,1.28,0,0,1-.1-.42.29.29,0,0,1,.1-.25.63.63,0,0,1,.33-.13l.62,0,.64,0a3.22,3.22,0,0,1,.39.08.54.54,0,0,1,.2.16.91.91,0,0,1,.12.22l5.22,14.56h.07l5.13-14.56a.55.55,0,0,1,.25-.34,1.11,1.11,0,0,1,.41-.12l.62,0a3.2,3.2,0,0,1,.59,0,.57.57,0,0,1,.34.13.29.29,0,0,1,.11.24,1.27,1.27,0,0,1-.09.41Z"/><path class="cls-3" d="M182,27.24a1,1,0,0,1-.36.91,1.19,1.19,0,0,1-.68.26H169.57a11.68,11.68,0,0,0,.31,2.81,5.86,5.86,0,0,0,1,2.14,4.73,4.73,0,0,0,1.84,1.38,7,7,0,0,0,2.75.47,10.26,10.26,0,0,0,2.1-.2,15.1,15.1,0,0,0,1.59-.45c.45-.17.82-.32,1.1-.46a2,2,0,0,1,.63-.19.46.46,0,0,1,.2.05.33.33,0,0,1,.14.18,1,1,0,0,1,.09.3,2.86,2.86,0,0,1,0,.46,1.79,1.79,0,0,1,0,.24c0,.08,0,.15,0,.23l-.07.19a1.37,1.37,0,0,1-.16.18,2.37,2.37,0,0,1-.57.33,9.13,9.13,0,0,1-1.26.46,14.88,14.88,0,0,1-1.8.4,11.65,11.65,0,0,1-2.19.2,9.55,9.55,0,0,1-3.43-.58,6.47,6.47,0,0,1-2.52-1.72A7.52,7.52,0,0,1,167.74,32a12.73,12.73,0,0,1-.53-3.88,12.43,12.43,0,0,1,.54-3.81,8.18,8.18,0,0,1,1.56-2.84,6.61,6.61,0,0,1,2.44-1.79,7.86,7.86,0,0,1,3.19-.63,7.47,7.47,0,0,1,3.21.63,6.35,6.35,0,0,1,2.19,1.68,7.09,7.09,0,0,1,1.24,2.47A10.57,10.57,0,0,1,182,26.8Zm-2.27-.64a6,6,0,0,0-1.22-4.14,4.57,4.57,0,0,0-3.71-1.5A4.72,4.72,0,0,0,171,22.67a5.69,5.69,0,0,0-1,1.81,7.44,7.44,0,0,0-.4,2.12Z"/><path class="cls-3" d="M199.82,36.45a.42.42,0,0,1-.06.21.37.37,0,0,1-.18.13,1,1,0,0,1-.33.1,2.69,2.69,0,0,1-.52,0,2.87,2.87,0,0,1-.55,0,1.08,1.08,0,0,1-.33-.1.42.42,0,0,1-.18-.13.52.52,0,0,1,0-.21v-9.9a10.66,10.66,0,0,0-.25-2.52,4.68,4.68,0,0,0-.73-1.66,3.19,3.19,0,0,0-1.22-1.08,3.89,3.89,0,0,0-1.74-.36,4.44,4.44,0,0,0-2.54.88,14.9,14.9,0,0,0-2.68,2.67v12a.54.54,0,0,1-.05.21.37.37,0,0,1-.18.13,1.08,1.08,0,0,1-.33.1,2.81,2.81,0,0,1-.54,0,2.59,2.59,0,0,1-.52,0,1.23,1.23,0,0,1-.35-.1.33.33,0,0,1-.18-.13.54.54,0,0,1,0-.21V11.59a.39.39,0,0,1,0-.2.37.37,0,0,1,.18-.17,1.3,1.3,0,0,1,.35-.08,3.64,3.64,0,0,1,.52,0,4,4,0,0,1,.54,0,1.14,1.14,0,0,1,.33.08.43.43,0,0,1,.18.17.39.39,0,0,1,.05.2V22a9.88,9.88,0,0,1,2.73-2.22,5.81,5.81,0,0,1,2.74-.72,6.23,6.23,0,0,1,2.76.56,5,5,0,0,1,1.82,1.48,6.36,6.36,0,0,1,1,2.21,12.49,12.49,0,0,1,.31,3Z"/><path class="cls-3" d="M207.67,14.14a1.65,1.65,0,0,1-.31,1.19,1.6,1.6,0,0,1-1.14.31,1.64,1.64,0,0,1-1.12-.29,1.79,1.79,0,0,1-.3-1.21,1.67,1.67,0,0,1,.31-1.18,1.55,1.55,0,0,1,1.14-.32,1.6,1.6,0,0,1,1.12.3,1.7,1.7,0,0,1,.3,1.2m-.33,22.31a.54.54,0,0,1-.05.21.4.4,0,0,1-.19.13.86.86,0,0,1-.32.1,2.86,2.86,0,0,1-.54,0,2.7,2.7,0,0,1-.53,0,1.25,1.25,0,0,1-.34-.1.33.33,0,0,1-.18-.13.39.39,0,0,1,0-.21V19.76a.39.39,0,0,1,0-.21.4.4,0,0,1,.18-.15,1.25,1.25,0,0,1,.34-.1l.53,0,.54,0a.86.86,0,0,1,.32.1.51.51,0,0,1,.19.15.54.54,0,0,1,.05.21Z"/><path class="cls-3" d="M224.42,36.45a.37.37,0,0,1-.12.28.79.79,0,0,1-.32.15,2.43,2.43,0,0,1-.52,0,2.66,2.66,0,0,1-.53,0,.76.76,0,0,1-.35-.15.33.33,0,0,1-.11-.28V34.58A8.71,8.71,0,0,1,220,36.46a6.31,6.31,0,0,1-2.82.67,7.44,7.44,0,0,1-2.35-.35,4.75,4.75,0,0,1-1.76-1A4.34,4.34,0,0,1,212,34.28a5.15,5.15,0,0,1-.38-2,4.58,4.58,0,0,1,2.18-4.1,7.7,7.7,0,0,1,2.54-1,15,15,0,0,1,3.27-.33h2.66V25.33a7.61,7.61,0,0,0-.22-1.89,3.14,3.14,0,0,0-.72-1.38,3.1,3.1,0,0,0-1.29-.83,6.07,6.07,0,0,0-1.93-.27,7.16,7.16,0,0,0-2,.26,10.22,10.22,0,0,0-2.65,1.21,1.56,1.56,0,0,1-.62.25l-.21,0a.36.36,0,0,1-.15-.15.49.49,0,0,1-.09-.25,2.17,2.17,0,0,1,0-.38,2.65,2.65,0,0,1,.06-.62,1,1,0,0,1,.27-.46,4.38,4.38,0,0,1,.84-.54,7.4,7.4,0,0,1,1.35-.58,11,11,0,0,1,1.65-.44,9.63,9.63,0,0,1,1.77-.16,8.73,8.73,0,0,1,2.89.42,4.26,4.26,0,0,1,2.95,3.09,9.53,9.53,0,0,1,.32,2.56Zm-2.2-7.88h-3a10,10,0,0,0-2.33.24,5,5,0,0,0-1.66.71,2.77,2.77,0,0,0-1,1.1,3.18,3.18,0,0,0-.32,1.47,3,3,0,0,0,.92,2.3,3.54,3.54,0,0,0,2.56.86,4.8,4.8,0,0,0,2.45-.67,11.27,11.27,0,0,0,2.4-2.08Z"/><path class="cls-3" d="M251.67,19.79a8,8,0,0,1-.56,3.05,6.65,6.65,0,0,1-1.61,2.38,7.42,7.42,0,0,1-2.57,1.55,10.81,10.81,0,0,1-3.64.55h-3.11v9.13a.35.35,0,0,1-.05.2.32.32,0,0,1-.19.14,1.56,1.56,0,0,1-.34.1,2.81,2.81,0,0,1-.54,0,2.92,2.92,0,0,1-.54,0,2.14,2.14,0,0,1-.35-.1.37.37,0,0,1-.18-.14.46.46,0,0,1-.05-.2V14.11a1,1,0,0,1,.35-.9A1.08,1.08,0,0,1,239,13h4.83a13,13,0,0,1,1.42.07,11.89,11.89,0,0,1,1.58.27,6.67,6.67,0,0,1,1.87.8,5.94,5.94,0,0,1,1.61,1.42,6.19,6.19,0,0,1,1,1.92,7.35,7.35,0,0,1,.36,2.36M249.3,20a5.25,5.25,0,0,0-.61-2.63,4.39,4.39,0,0,0-1.48-1.61,4.93,4.93,0,0,0-1.83-.66,12.87,12.87,0,0,0-1.79-.14h-3.41V25.33h3.25a7.66,7.66,0,0,0,2.62-.39,5.23,5.23,0,0,0,1.77-1.11,4.72,4.72,0,0,0,1.1-1.68A6.08,6.08,0,0,0,249.3,20"/><path class="cls-3" d="M265.22,20.61c0,.19,0,.34,0,.46a1.22,1.22,0,0,1-.06.32.5.5,0,0,1-.11.19.31.31,0,0,1-.19.06,1.18,1.18,0,0,1-.37-.08l-.52-.18-.65-.18a3.64,3.64,0,0,0-.77-.08,2.43,2.43,0,0,0-1,.21,4.23,4.23,0,0,0-1,.69,8.46,8.46,0,0,0-1.09,1.25c-.39.51-.82,1.15-1.28,1.88v11.3a.58.58,0,0,1-.07.21.39.39,0,0,1-.17.13,1.64,1.64,0,0,1-.33.1,3,3,0,0,1-.55,0,2.69,2.69,0,0,1-.52,0,1.88,1.88,0,0,1-.35-.1.39.39,0,0,1-.17-.13.41.41,0,0,1-.05-.21V19.76a.38.38,0,0,1,.05-.21.51.51,0,0,1,.17-.15,1.87,1.87,0,0,1,.33-.1l.51,0,.51,0a1.52,1.52,0,0,1,.32.1.36.36,0,0,1,.15.15.5.5,0,0,1,.05.21v2.63a14.49,14.49,0,0,1,1.33-1.69,6.37,6.37,0,0,1,1.16-1,3.21,3.21,0,0,1,1.08-.48,3.83,3.83,0,0,1,1.07-.14,4,4,0,0,1,.56,0,3.4,3.4,0,0,1,.67.1,6.48,6.48,0,0,1,.64.17,2,2,0,0,1,.4.18l.16.15c0,.05,0,.1.06.17s0,.16,0,.28,0,.26,0,.45"/><path class="cls-3" d="M270.74,14.14a1.7,1.7,0,0,1-.31,1.19,1.62,1.62,0,0,1-1.14.31,1.67,1.67,0,0,1-1.12-.29,1.79,1.79,0,0,1-.3-1.21,1.62,1.62,0,0,1,.32-1.18,1.52,1.52,0,0,1,1.14-.32,1.57,1.57,0,0,1,1.11.3,1.75,1.75,0,0,1,.3,1.2m-.33,22.31a.54.54,0,0,1-.05.21.42.42,0,0,1-.18.13,1,1,0,0,1-.34.1,2.7,2.7,0,0,1-.53,0,2.92,2.92,0,0,1-.54,0,1.17,1.17,0,0,1-.33-.1.27.27,0,0,1-.17-.13.41.41,0,0,1,0-.21V19.76a.41.41,0,0,1,0-.21.32.32,0,0,1,.17-.15,1.17,1.17,0,0,1,.33-.1l.54,0,.53,0a1,1,0,0,1,.34.1.55.55,0,0,1,.18.15.54.54,0,0,1,.05.21Z"/><path class="cls-3" d="M285.89,35.86a1.58,1.58,0,0,1-.05.41,1.05,1.05,0,0,1-.12.31.31.31,0,0,1-.19.17.45.45,0,0,1-.24.06h-9.93a.77.77,0,0,1-.57-.22,1,1,0,0,1-.23-.73v-.52a2.1,2.1,0,0,1,0-.37,2.24,2.24,0,0,1,.11-.34c.05-.14.12-.26.19-.41s.18-.3.31-.48l7.94-12.46h-7.79a.51.51,0,0,1-.43-.22,1.27,1.27,0,0,1-.16-.73,1.76,1.76,0,0,1,0-.42,1.34,1.34,0,0,1,.12-.31.44.44,0,0,1,.19-.17.48.48,0,0,1,.24-.06h9.21a1,1,0,0,1,.33.06.75.75,0,0,1,.24.15,1.69,1.69,0,0,1,.17.3,1.49,1.49,0,0,1,.06.45v.43a2.19,2.19,0,0,1,0,.36,2.62,2.62,0,0,1-.09.38,2.86,2.86,0,0,1-.22.42c-.08.16-.19.33-.31.54L276.81,34.9h8.48a.45.45,0,0,1,.24.06.39.39,0,0,1,.19.17,1.24,1.24,0,0,1,.12.3,1.81,1.81,0,0,1,.05.43"/><path class="cls-3" d="M302.6,27.24a1,1,0,0,1-.36.91,1.16,1.16,0,0,1-.68.26H290.18a12.21,12.21,0,0,0,.31,2.81,5.42,5.42,0,0,0,1,2.14,4.63,4.63,0,0,0,1.83,1.38,7,7,0,0,0,2.76.47,10,10,0,0,0,2.08-.2,13.48,13.48,0,0,0,1.6-.45c.45-.17.82-.32,1.12-.46a2,2,0,0,1,.6-.19.5.5,0,0,1,.21.05.48.48,0,0,1,.16.18,2.46,2.46,0,0,1,.08.3c0,.12,0,.27,0,.46a1.79,1.79,0,0,1,0,.24,1.89,1.89,0,0,1-.05.23.39.39,0,0,1-.08.19,1.24,1.24,0,0,1-.14.18,2.53,2.53,0,0,1-.58.33,8.48,8.48,0,0,1-1.25.46,14.46,14.46,0,0,1-1.8.4,11.79,11.79,0,0,1-2.21.2,9.54,9.54,0,0,1-3.42-.58,6.55,6.55,0,0,1-2.52-1.72A7.52,7.52,0,0,1,288.35,32a13.06,13.06,0,0,1-.52-3.88,12.44,12.44,0,0,1,.53-3.81,8.35,8.35,0,0,1,1.56-2.84,6.45,6.45,0,0,1,2.44-1.79,7.86,7.86,0,0,1,3.19-.63,7.47,7.47,0,0,1,3.21.63,6.13,6.13,0,0,1,2.18,1.68,7,7,0,0,1,1.26,2.47,11,11,0,0,1,.4,2.95Zm-2.28-.64a5.88,5.88,0,0,0-1.21-4.14,4.57,4.57,0,0,0-3.72-1.5,5,5,0,0,0-2.19.46,5.24,5.24,0,0,0-1.61,1.25,5.48,5.48,0,0,0-1,1.81,7.45,7.45,0,0,0-.41,2.12Z"/><text class="cls-4" transform="translate(80.69 57.9)"><tspan class="cls-5">f</tspan><tspan x="5.8" y="0">or Co</tspan><tspan class="cls-6" x="51.25" y="0">nt</tspan><tspan x="68.77" y="0">empo</tspan><tspan class="cls-7" x="117.97" y="0">r</tspan><tspan x="124.84" y="0">a</tspan><tspan class="cls-8" x="134.8" y="0">r</tspan><tspan x="142.19" y="0">y Art NFP</tspan></text></g></g></svg>